<svg width="50" height="50" viewBox="0 0 50 50" fill="none" xmlns="http://www.w3.org/2000/svg">
<path d="M25.0013 27.0832C21.2669 27.0832 18.2285 24.0457 18.2285 20.3123C18.2285 16.579 21.2669 13.5415 25.0013 13.5415C28.7357 13.5415 31.7741 16.579 31.7741 20.3123C31.7741 24.0457 28.7357 27.0832 25.0013 27.0832ZM25.0013 15.6248C22.4152 15.6248 20.3125 17.7269 20.3125 20.3123C20.3125 22.8978 22.4152 24.9999 25.0013 24.9999C27.5875 24.9999 29.6902 22.8978 29.6902 20.3123C29.6902 17.7269 27.5875 15.6248 25.0013 15.6248Z" fill="#52B4DC"/>
<path d="M32.0171 34.4543C31.5545 34.4543 31.1419 34.1439 31.0147 33.6981C30.2541 31.0252 27.7805 29.1606 24.9963 29.1606C24.4212 29.1606 23.846 29.2418 23.2896 29.4002C21.2181 29.9898 19.6156 31.5752 19.005 33.6418C18.8758 34.0814 18.4653 34.3898 18.0068 34.3898C17.9068 34.3898 17.8046 34.3752 17.7088 34.346C17.4441 34.2668 17.2232 34.0898 17.0899 33.846C16.9565 33.6023 16.9273 33.321 17.0065 33.0543C17.8213 30.3002 19.9553 28.1856 22.7186 27.4002C23.4625 27.1877 24.2294 27.0814 24.9963 27.0814C28.7037 27.0814 32.0025 29.571 33.0174 33.1335C33.1737 33.6856 32.8528 34.2627 32.3005 34.421C32.213 34.4398 32.1151 34.4543 32.0171 34.4543Z" fill="#52B4DC"/>
<path d="M31.2535 50C31.1618 50 31.0701 49.9875 30.9805 49.9646C30.422 49.8125 30.0948 49.2375 30.247 48.6833L33.0124 38.5875H16.9869L19.7522 48.6833C19.9044 49.2354 19.5772 49.8104 19.0229 49.9625C18.9333 49.9875 18.8416 50 18.752 50C18.2831 50 17.8684 49.6854 17.7454 49.2333L14.83 38.5875H13.54C12.9648 38.5875 12.498 38.1208 12.498 37.5458C12.498 36.9708 12.9648 36.5042 13.54 36.5042H36.4634C37.0385 36.5042 37.5053 36.9708 37.5053 37.5458C37.5053 38.1208 37.0385 38.5875 36.4634 38.5875H35.1755L32.2601 49.2333C32.135 49.6854 31.7224 50 31.2535 50Z" fill="#52B4DC"/>
<path d="M24.9926 44.3167C25.8558 44.3167 26.5556 43.6171 26.5556 42.7542C26.5556 41.8912 25.8558 41.1917 24.9926 41.1917C24.1294 41.1917 23.4297 41.8912 23.4297 42.7542C23.4297 43.6171 24.1294 44.3167 24.9926 44.3167Z" fill="#52B4DC"/>
<path d="M38.5383 33.3334C37.9632 33.3334 37.4964 32.8667 37.4964 32.2917C37.4964 31.7167 37.9632 31.25 38.5383 31.25H46.8741C47.4493 31.25 47.9161 30.7834 47.9161 30.2084V3.125C47.9161 2.55 47.4493 2.08334 46.8741 2.08334H3.12591C2.55074 2.08334 2.08394 2.55 2.08394 3.125V30.2084C2.08394 30.7834 2.55074 31.25 3.12591 31.25H11.4471C12.0223 31.25 12.4891 31.7167 12.4891 32.2917C12.4891 32.8667 12.0223 33.3334 11.4471 33.3334H3.12591C1.40249 33.3334 0 31.9313 0 30.2084V3.125C0 1.40209 1.40249 0 3.12591 0H46.8741C48.5975 0 50 1.40209 50 3.125V30.2084C50 31.9313 48.5975 33.3334 46.8741 33.3334H38.5383Z" fill="#52B4DC"/>
</svg>
