<svg width="17" height="17" viewBox="0 0 17 17" fill="none" xmlns="http://www.w3.org/2000/svg">
<mask id="mask0_705_3497" style="mask-type:alpha" maskUnits="userSpaceOnUse" x="1" y="0" width="15" height="15">
<rect x="1.49316" width="14.1525" height="14.1525" fill="#D9D9D9"/>
</mask>
<g mask="url(#mask0_705_3497)">
<path d="M14.5672 6.31812L13.2262 4.97718L13.2261 1.64397C13.2261 1.16935 12.8414 0.784668 12.3668 0.784668H11.0779C10.6033 0.784668 10.2186 1.16935 10.2186 1.64397V1.96964L9.4113 1.16234C8.90793 0.659159 8.0921 0.659159 7.58873 1.16234L2.43287 6.31819C2.00644 6.74319 1.93198 7.40716 2.25367 7.91602C2.57536 8.42488 3.20698 8.6426 3.77391 8.43977V11.9556C3.77391 12.4302 4.15869 12.8149 4.63321 12.8149H12.367C12.8416 12.8149 13.2263 12.4302 13.2263 11.9556L13.2262 8.44025C13.793 8.64241 14.4244 8.4246 14.7459 7.91583C15.0673 7.40707 14.9932 6.74339 14.5672 6.31819L14.5672 6.31812ZM11.0778 1.64409H12.3667V4.11808L11.0778 2.82914V1.64409ZM9.3592 11.9556H7.6406V10.237C7.6406 9.9997 7.83299 9.80732 8.07024 9.80732H8.92954C9.1668 9.80732 9.35918 9.99971 9.35918 10.237L9.3592 11.9556ZM12.3667 11.9556H10.2185V10.237C10.2185 9.5251 9.64143 8.94802 8.92957 8.94802H8.07026C7.3584 8.94802 6.78132 9.5251 6.78132 10.237V11.9556H4.63298V7.76312L8.5 3.89635L12.3668 7.76312L12.3667 11.9556ZM13.9595 7.53532V7.53314C13.7895 7.69564 13.5218 7.69564 13.3519 7.53314L13.1079 7.28904L13.089 7.27016L8.80359 2.98519C8.63577 2.81747 8.36389 2.81747 8.19606 2.98519L3.9106 7.27235L3.64763 7.53532C3.53977 7.64697 3.38 7.69184 3.22975 7.65247C3.07948 7.6132 2.96222 7.49585 2.92285 7.34558C2.88367 7.1954 2.92845 7.03564 3.0401 6.92779L8.19596 1.77193C8.36378 1.60421 8.63575 1.60421 8.80349 1.77193L10.3365 3.30487C10.343 3.3117 10.3486 3.3173 10.3554 3.32375L12.4852 5.45358C12.4912 5.46003 12.4968 5.46563 12.5033 5.47161L13.9594 6.9277C14.1272 7.09543 14.1272 7.3674 13.9594 7.53524L13.9595 7.53532Z" fill="white"/>
</g>
</svg>
