<svg width="75" height="75" viewBox="0 0 75 75" fill="none" xmlns="http://www.w3.org/2000/svg">
<path d="M15.4062 59.7812H57.5938V62.5938H15.4062V59.7812Z" fill="white" fill-opacity="0.5"/>
<path d="M19.625 55.5631C20.4465 55.5658 21.2509 55.3277 21.9386 54.8782C22.6263 54.4288 23.1673 53.7878 23.4948 53.0343C23.8222 52.2809 23.9217 51.448 23.7811 50.6385C23.6404 49.8291 23.2657 49.0787 22.7033 48.4798L29.9019 37.1567C30.8342 37.396 31.8216 37.2901 32.682 36.8586L38.3281 42.5061C38.0529 43.0689 37.9087 43.6866 37.9062 44.3131C37.9062 45.432 38.3507 46.5051 39.1419 47.2962C39.9331 48.0874 41.0061 48.5319 42.125 48.5319C43.2439 48.5319 44.3169 48.0874 45.1081 47.2962C45.8993 46.5051 46.3438 45.432 46.3438 44.3131C46.3411 43.3309 45.9926 42.3809 45.3594 41.63L52.6719 28.774C53.6608 28.9464 54.6787 28.7632 55.5455 28.257C56.4123 27.7508 57.072 26.9542 57.4078 26.0082C57.7436 25.0623 57.7339 24.028 57.3803 23.0886C57.0267 22.1492 56.3521 21.3651 55.4759 20.8754C54.5997 20.3856 53.5785 20.2216 52.5931 20.4126C51.6076 20.6035 50.7215 21.137 50.0916 21.9186C49.4618 22.7001 49.1288 23.6794 49.1517 24.6829C49.1745 25.6864 49.5518 26.6495 50.2166 27.4015L42.9378 40.1773C42.6702 40.1236 42.398 40.0958 42.125 40.0944C41.4985 40.0968 40.8807 40.241 40.318 40.5162L34.6719 34.8701C34.9471 34.3074 35.0913 33.6896 35.0938 33.0631C35.0938 31.9442 34.6493 30.8712 33.8581 30.08C33.0669 29.2888 31.9939 28.8444 30.875 28.8444C29.7561 28.8444 28.6831 29.2888 27.8919 30.08C27.1007 30.8712 26.6562 31.9442 26.6562 33.0631C26.6597 33.9913 26.9724 34.8919 27.545 35.6225L20.1945 47.1833C20.0062 47.1512 19.8159 47.1319 19.625 47.1256C18.5061 47.1256 17.4331 47.5701 16.6419 48.3613C15.8507 49.1524 15.4063 50.2255 15.4062 51.3444C15.4062 52.4632 15.8507 53.5363 16.6419 54.3275C17.4331 55.1186 18.5061 55.5631 19.625 55.5631ZM42.125 45.7194C41.8469 45.7194 41.575 45.6369 41.3437 45.4824C41.1125 45.3278 40.9322 45.1082 40.8258 44.8513C40.7194 44.5943 40.6915 44.3116 40.7458 44.0388C40.8 43.766 40.934 43.5154 41.1306 43.3187C41.3273 43.1221 41.5779 42.9881 41.8507 42.9339C42.1234 42.8796 42.4062 42.9075 42.6631 43.0139C42.9201 43.1203 43.1397 43.3006 43.2943 43.5318C43.4488 43.7631 43.5312 44.035 43.5312 44.3131C43.5312 44.6861 43.3831 45.0438 43.1194 45.3075C42.8556 45.5712 42.498 45.7194 42.125 45.7194ZM53.375 23.2194C53.6531 23.2194 53.925 23.3018 54.1563 23.4564C54.3875 23.6109 54.5678 23.8305 54.6742 24.0875C54.7806 24.3444 54.8085 24.6272 54.7542 24.9C54.7 25.1727 54.566 25.4233 54.3694 25.62C54.1727 25.8166 53.9221 25.9506 53.6493 26.0048C53.3766 26.0591 53.0938 26.0313 52.8369 25.9248C52.5799 25.8184 52.3603 25.6381 52.2057 25.4069C52.0512 25.1756 51.9688 24.9037 51.9688 24.6256C51.9688 24.2526 52.1169 23.895 52.3806 23.6312C52.6444 23.3675 53.002 23.2194 53.375 23.2194ZM30.875 31.6569C31.1531 31.6569 31.425 31.7393 31.6563 31.8939C31.8875 32.0484 32.0678 32.268 32.1742 32.525C32.2806 32.7819 32.3085 33.0647 32.2542 33.3375C32.2 33.6102 32.066 33.8608 31.8694 34.0575C31.6727 34.2541 31.4221 34.3881 31.1493 34.4423C30.8766 34.4966 30.5938 34.4688 30.3369 34.3623C30.0799 34.2559 29.8603 34.0756 29.7057 33.8444C29.5512 33.6131 29.4688 33.3412 29.4688 33.0631C29.4688 32.6902 29.6169 32.3325 29.8806 32.0687C30.1444 31.805 30.502 31.6569 30.875 31.6569ZM19.625 49.9381C19.9031 49.9381 20.175 50.0206 20.4063 50.1751C20.6375 50.3296 20.8178 50.5493 20.9242 50.8062C21.0306 51.0632 21.0585 51.3459 21.0042 51.6187C20.95 51.8915 20.816 52.1421 20.6194 52.3387C20.4227 52.5354 20.1721 52.6693 19.8993 52.7236C19.6266 52.7779 19.3438 52.75 19.0869 52.6436C18.8299 52.5371 18.6103 52.3569 18.4557 52.1256C18.3012 51.8944 18.2187 51.6225 18.2187 51.3444C18.2187 50.9714 18.3669 50.6137 18.6306 50.35C18.8944 50.0863 19.252 49.9381 19.625 49.9381Z" fill="white" fill-opacity="0.5"/>
</svg>
