<svg width="75" height="75" viewBox="0 0 75 75" fill="none" xmlns="http://www.w3.org/2000/svg">
<g clip-path="url(#clip0_1046_3521)">
<path d="M56.0651 38.611C53.9372 38.611 52.1302 40.0074 51.5099 41.9315H40.6133V33.0685H51.5099C52.1302 34.9926 53.9372 36.389 56.0651 36.389C58.7037 36.389 60.8504 34.2423 60.8504 31.6036C60.8504 28.9648 58.7037 26.8182 56.0651 26.8182C53.9372 26.8182 52.1302 28.2146 51.5099 30.1388H40.6133V21.0558H44.5084C45.1287 22.9799 46.9358 24.3763 49.0636 24.3763C51.7023 24.3763 53.8489 22.2296 53.8489 19.5909C53.8489 16.9521 51.7023 14.8055 49.0636 14.8055C46.9358 14.8055 45.1287 16.2019 44.5084 18.1261H40.6133V13.9648C40.6133 13.1559 39.9574 12.5 39.1484 12.5H36.0406C34.4738 12.5 33.1962 13.7622 33.1709 15.3231C31.2567 15.8378 29.4149 16.6013 27.6947 17.5928C26.5733 16.5058 24.7768 16.5165 23.6684 17.6247L19.2732 22.0198C18.7312 22.562 18.4326 23.2827 18.4326 24.0493C18.4326 24.8007 18.7194 25.5081 19.2412 26.0462C18.2497 27.7663 17.4863 29.6083 16.9716 31.5224C15.4105 31.5475 14.1484 32.8252 14.1484 34.3921V40.6077C14.1484 42.1746 15.4105 43.4523 16.9716 43.4774C17.4863 45.3918 18.2498 47.2339 19.2412 48.9535C18.7194 49.4918 18.4325 50.1991 18.4325 50.9505C18.4325 51.7172 18.7311 52.4378 19.2731 52.98L23.6683 57.3752C24.7763 58.4832 26.5723 58.4937 27.6946 57.407C29.4147 58.3985 31.2566 59.1619 33.1708 59.6766C33.1959 61.2377 34.4736 62.4998 36.0405 62.4998H39.1484C39.9573 62.4998 40.6132 61.8439 40.6132 61.035V56.8737H44.5083C45.1286 58.7979 46.9357 60.1943 49.0635 60.1943C51.7022 60.1943 53.8488 58.0477 53.8488 55.4089C53.8488 52.7702 51.7022 50.6235 49.0635 50.6235C46.9357 50.6235 45.1286 52.0199 44.5083 53.944H40.6132V44.861H51.5098C52.1301 46.7853 53.9371 48.1816 56.065 48.1816C58.7036 48.1816 60.8503 46.035 60.8503 43.3962C60.8504 40.7577 58.7037 38.611 56.0651 38.611ZM56.0651 45.2521C55.0418 45.2521 54.2094 44.4197 54.2094 43.3964C54.2094 42.3731 55.0418 41.5407 56.0651 41.5407C57.0883 41.5407 57.9207 42.3731 57.9207 43.3964C57.9207 44.4196 57.0882 45.2521 56.0651 45.2521ZM21.8031 47.5315C20.9203 46.0086 20.2431 44.3755 19.7902 42.6773C19.461 41.443 18.3509 40.5752 17.0781 40.5488V34.4512C18.3509 34.4248 19.461 33.557 19.7902 32.3226C20.243 30.6246 20.9202 28.9915 21.803 27.4684C22.4421 26.3658 22.2691 24.9688 21.3864 24.0497L25.6981 19.7381C26.6172 20.6207 28.0141 20.7936 29.1169 20.1547C30.64 19.2718 32.2733 18.5945 33.971 18.1418C35.2055 17.8127 36.0733 16.7026 36.0996 15.4298H37.6836V23.7569C30.7489 24.4909 25.3276 30.3741 25.3276 37.5001C25.3276 44.6261 30.7488 50.5094 37.6836 51.2433V59.5703H36.0996C36.0733 58.2977 35.2056 57.1875 33.9711 56.8582C32.2732 56.4054 30.6399 55.7282 29.1169 54.8454C28.0148 54.2065 26.6182 54.3793 25.6983 55.262L21.3865 50.9502C22.2692 50.0312 22.4421 48.6343 21.8031 47.5315ZM37.6836 48.2923C32.3685 47.5745 28.2573 43.0087 28.2573 37.5C28.2573 31.9913 32.3685 27.4255 37.6836 26.7077V48.2923ZM57.9207 31.6036C57.9207 32.6269 57.0883 33.4593 56.0651 33.4593C55.0418 33.4593 54.2094 32.6269 54.2094 31.6036C54.2094 30.5803 55.0418 29.7479 56.0651 29.7479C57.0882 29.7479 57.9207 30.5804 57.9207 31.6036ZM50.9193 19.5909C50.9193 20.6142 50.0868 21.4466 49.0636 21.4466C48.0403 21.4466 47.2079 20.6142 47.2079 19.5909C47.2079 18.5676 48.0403 17.7352 49.0636 17.7352C50.0868 17.7352 50.9193 18.5677 50.9193 19.5909ZM50.9193 55.4091C50.9193 56.4324 50.0868 57.2648 49.0636 57.2648C48.0403 57.2648 47.2079 56.4324 47.2079 55.4091C47.2079 54.3858 48.0403 53.5534 49.0636 53.5534C50.0868 53.5534 50.9193 54.3858 50.9193 55.4091Z" fill="white" fill-opacity="0.5"/>
</g>
<defs>
<clipPath id="clip0_1046_3521">
<rect width="50" height="50" fill="white" transform="translate(12.5 12.5)"/>
</clipPath>
</defs>
</svg>
