<svg width="43" height="43" viewBox="0 0 43 43" fill="none" xmlns="http://www.w3.org/2000/svg">
<path d="M26.1083 42.7083C25.5333 42.7083 25.0667 42.2417 25.0667 41.6667C25.0667 28.4208 14.2875 17.6438 1.04167 17.6438C0.466667 17.6438 0 17.1771 0 16.6021C0 16.0271 0.466667 15.5604 1.04167 15.5604C15.4375 15.5604 27.1479 27.2708 27.15 41.6667C27.15 42.2417 26.6833 42.7083 26.1083 42.7083Z" fill="#52B4DC"/>
<path d="M2.08366 41.6667C1.50866 41.6667 1.04199 41.2 1.04199 40.625V31.1938C1.04199 30.9167 1.15449 30.6459 1.35241 30.4521C1.54824 30.2584 1.81074 30.1521 2.08991 30.1521C7.78783 30.2333 12.4524 34.9271 12.4982 40.6167C12.5003 40.8959 12.3941 41.1583 12.1962 41.3583C12.0045 41.5542 11.7337 41.6667 11.4587 41.6667H2.08366ZM10.342 39.5834C9.83991 35.8417 6.86283 32.8438 3.12533 32.3167V39.5834H10.342Z" fill="#52B4DC"/>
<path d="M41.6667 42.7083C41.0917 42.7083 40.625 42.2417 40.625 41.6667C40.625 19.8396 22.8687 2.08333 1.04167 2.08333C0.466667 2.08333 0 1.61667 0 1.04167C0 0.466667 0.466667 0 1.04167 0C24.0167 0 42.7083 18.6917 42.7083 41.6667C42.7083 42.2417 42.2417 42.7083 41.6667 42.7083Z" fill="#52B4DC"/>
</svg>
