<svg width="255" height="400" viewBox="0 0 255 400" fill="none" xmlns="http://www.w3.org/2000/svg">
<g clip-path="url(#clip0_1097_3450)">
<rect width="255" height="400" rx="8" fill="white" fill-opacity="0.04"/>
<g filter="url(#filter0_d_1097_3450)">
<g clip-path="url(#clip1_1097_3450)">
<rect x="12.1426" y="238.798" width="0.00388571" height="0.00585816" rx="0.00194286" fill="#52B4DC"/>
<path d="M12.1459 238.8C12.1456 238.8 12.1454 238.8 12.1452 238.801C12.145 238.801 12.145 238.802 12.145 238.802V238.804H12.1459V238.802H12.1454C12.1454 238.802 12.1454 238.802 12.1455 238.801C12.1456 238.801 12.1457 238.801 12.1458 238.801L12.1459 238.8ZM12.1445 238.8C12.1442 238.8 12.1439 238.8 12.1438 238.801C12.1436 238.801 12.1436 238.802 12.1436 238.802V238.804H12.1445V238.802H12.144C12.144 238.802 12.144 238.802 12.1441 238.801C12.1441 238.801 12.1443 238.801 12.1444 238.801L12.1445 238.8Z" fill="white"/>
</g>
</g>
<g filter="url(#filter1_d_1097_3450)">
<g clip-path="url(#clip2_1097_3450)">
<rect x="12.1426" y="238.798" width="0.00388571" height="0.00585816" rx="0.00194286" fill="#52B4DC"/>
<path d="M12.1459 238.8C12.1456 238.8 12.1454 238.8 12.1452 238.801C12.145 238.801 12.145 238.802 12.145 238.802V238.804H12.1459V238.802H12.1454C12.1454 238.802 12.1454 238.802 12.1455 238.801C12.1456 238.801 12.1457 238.801 12.1458 238.801L12.1459 238.8ZM12.1445 238.8C12.1442 238.8 12.1439 238.8 12.1438 238.801C12.1436 238.801 12.1436 238.802 12.1436 238.802V238.804H12.1445V238.802H12.144C12.144 238.802 12.144 238.802 12.1441 238.801C12.1441 238.801 12.1443 238.801 12.1444 238.801L12.1445 238.8Z" fill="white"/>
</g>
</g>
<line opacity="0.15" x1="30" y1="189.5" x2="237" y2="189.5" stroke="white"/>
<path opacity="0.85" d="M39.07 224.1C38.0033 224.1 37.0167 223.913 36.11 223.54C35.2033 223.173 34.4133 222.66 33.74 222C33.0667 221.333 32.54 220.55 32.16 219.65C31.7867 218.75 31.6 217.77 31.6 216.71C31.6 215.583 31.7833 214.557 32.15 213.63C32.5167 212.697 33.0333 211.893 33.7 211.22C34.3733 210.54 35.17 210.017 36.09 209.65C37.01 209.283 38.02 209.1 39.12 209.1C40.38 209.1 41.48 209.303 42.42 209.71C43.3667 210.11 44.1467 210.657 44.76 211.35C45.3733 212.037 45.82 212.81 46.1 213.67C46.3867 214.53 46.5067 215.42 46.46 216.34C46.3933 217.6 46.0933 218.55 45.56 219.19C45.0333 219.83 44.2967 220.15 43.35 220.15C42.7367 220.15 42.2033 220.007 41.75 219.72C41.2967 219.433 40.9933 219.03 40.84 218.51L41.32 218.56C41.0867 219.033 40.7367 219.377 40.27 219.59C39.81 219.803 39.33 219.91 38.83 219.91C38.2233 219.91 37.69 219.78 37.23 219.52C36.7767 219.253 36.42 218.887 36.16 218.42C35.9067 217.953 35.78 217.413 35.78 216.8C35.78 216.16 35.9133 215.607 36.18 215.14C36.4467 214.673 36.8133 214.313 37.28 214.06C37.7467 213.807 38.2733 213.68 38.86 213.68C39.2933 213.68 39.74 213.77 40.2 213.95C40.6667 214.13 41.0233 214.423 41.27 214.83L40.88 215.27V213.96H41.94L41.93 217.21C41.93 217.703 42.0433 218.107 42.27 218.42C42.5033 218.727 42.8867 218.88 43.42 218.88C43.78 218.88 44.08 218.78 44.32 218.58C44.5667 218.38 44.7567 218.1 44.89 217.74C45.0233 217.373 45.1 216.943 45.12 216.45C45.16 215.437 45.03 214.55 44.73 213.79C44.43 213.03 44.0033 212.397 43.45 211.89C42.8967 211.377 42.2533 210.993 41.52 210.74C40.7933 210.487 40.0167 210.36 39.19 210.36C38.19 210.36 37.3 210.527 36.52 210.86C35.7467 211.193 35.09 211.653 34.55 212.24C34.0167 212.827 33.6133 213.503 33.34 214.27C33.0667 215.03 32.9367 215.84 32.95 216.7C32.9567 217.587 33.1167 218.407 33.43 219.16C33.75 219.907 34.19 220.557 34.75 221.11C35.31 221.657 35.9633 222.08 36.71 222.38C37.4567 222.687 38.2667 222.84 39.14 222.84C39.7067 222.84 40.2733 222.767 40.84 222.62C41.4133 222.473 41.9233 222.27 42.37 222.01L42.84 223.13C42.26 223.457 41.65 223.7 41.01 223.86C40.37 224.02 39.7233 224.1 39.07 224.1ZM38.91 218.63C39.43 218.63 39.8533 218.48 40.18 218.18C40.5133 217.88 40.68 217.417 40.68 216.79C40.68 216.177 40.52 215.713 40.2 215.4C39.8867 215.087 39.4667 214.93 38.94 214.93C38.34 214.93 37.88 215.093 37.56 215.42C37.2467 215.747 37.09 216.203 37.09 216.79C37.09 217.383 37.2533 217.84 37.58 218.16C37.9067 218.473 38.35 218.63 38.91 218.63ZM53.2964 222V209.01H48.2664V207.6H59.7964V209.01H54.7664V222H53.2964ZM61.6 209.15V207.5H63.07V209.15H61.6ZM61.6 222V211.2H63.07V222H61.6ZM78.948 222L78.958 214.91C78.958 214.077 78.7246 213.423 78.258 212.95C77.798 212.47 77.2113 212.23 76.498 212.23C76.0913 212.23 75.6946 212.323 75.308 212.51C74.9213 212.697 74.6013 212.997 74.348 213.41C74.1013 213.823 73.978 214.363 73.978 215.03L73.108 214.78C73.088 214.007 73.238 213.33 73.558 212.75C73.8846 212.17 74.3313 211.72 74.898 211.4C75.4713 211.073 76.118 210.91 76.838 210.91C77.9246 210.91 78.7946 211.247 79.448 211.92C80.1013 212.587 80.428 213.49 80.428 214.63L80.418 222H78.948ZM66.058 222V211.2H67.378V213.86H67.538V222H66.058ZM72.518 222L72.528 215.01C72.528 214.15 72.298 213.473 71.838 212.98C71.3846 212.48 70.7846 212.23 70.038 212.23C69.2913 212.23 68.688 212.487 68.228 213C67.768 213.507 67.538 214.183 67.538 215.03L66.658 214.55C66.658 213.857 66.8213 213.237 67.148 212.69C67.4746 212.137 67.9213 211.703 68.488 211.39C69.0546 211.07 69.698 210.91 70.418 210.91C71.1046 210.91 71.7146 211.057 72.248 211.35C72.788 211.643 73.2113 212.07 73.518 212.63C73.8246 213.19 73.978 213.87 73.978 214.67L73.968 222H72.518ZM87.025 222V207.6H91.395C91.5483 207.6 91.8083 207.603 92.175 207.61C92.5483 207.617 92.905 207.643 93.245 207.69C94.3383 207.843 95.2517 208.25 95.985 208.91C96.7183 209.57 97.2683 210.41 97.635 211.43C98.0017 212.45 98.185 213.573 98.185 214.8C98.185 216.027 98.0017 217.15 97.635 218.17C97.2683 219.19 96.7183 220.03 95.985 220.69C95.2517 221.35 94.3383 221.757 93.245 221.91C92.9117 221.95 92.555 221.977 92.175 221.99C91.795 221.997 91.535 222 91.395 222H87.025ZM88.545 220.59H91.395C91.6683 220.59 91.9617 220.583 92.275 220.57C92.595 220.55 92.8683 220.517 93.095 220.47C93.935 220.323 94.6117 219.983 95.125 219.45C95.645 218.917 96.025 218.25 96.265 217.45C96.505 216.643 96.625 215.76 96.625 214.8C96.625 213.833 96.505 212.947 96.265 212.14C96.025 211.333 95.645 210.667 95.125 210.14C94.605 209.613 93.9283 209.277 93.095 209.13C92.8683 209.083 92.5917 209.053 92.265 209.04C91.945 209.02 91.655 209.01 91.395 209.01H88.545V220.59ZM100.463 222V211.2H101.783V213.8L101.523 213.46C101.643 213.14 101.799 212.847 101.993 212.58C102.186 212.307 102.396 212.083 102.623 211.91C102.903 211.663 103.229 211.477 103.603 211.35C103.976 211.217 104.353 211.14 104.733 211.12C105.113 211.093 105.459 211.12 105.773 211.2V212.58C105.379 212.48 104.949 212.457 104.483 212.51C104.016 212.563 103.586 212.75 103.193 213.07C102.833 213.35 102.563 213.687 102.383 214.08C102.203 214.467 102.083 214.88 102.023 215.32C101.963 215.753 101.933 216.183 101.933 216.61V222H100.463ZM112.044 222.3C110.991 222.3 110.078 222.067 109.304 221.6C108.538 221.133 107.941 220.477 107.514 219.63C107.088 218.783 106.874 217.79 106.874 216.65C106.874 215.47 107.084 214.45 107.504 213.59C107.924 212.73 108.514 212.067 109.274 211.6C110.041 211.133 110.944 210.9 111.984 210.9C113.051 210.9 113.961 211.147 114.714 211.64C115.468 212.127 116.038 212.827 116.424 213.74C116.811 214.653 116.988 215.743 116.954 217.01H115.454V216.49C115.428 215.09 115.124 214.033 114.544 213.32C113.971 212.607 113.131 212.25 112.024 212.25C110.864 212.25 109.974 212.627 109.354 213.38C108.741 214.133 108.434 215.207 108.434 216.6C108.434 217.96 108.741 219.017 109.354 219.77C109.974 220.517 110.851 220.89 111.984 220.89C112.758 220.89 113.431 220.713 114.004 220.36C114.584 220 115.041 219.483 115.374 218.81L116.744 219.34C116.318 220.28 115.688 221.01 114.854 221.53C114.028 222.043 113.091 222.3 112.044 222.3ZM107.914 217.01V215.78H116.164V217.01H107.914ZM126.973 222V216.49C126.973 215.89 126.917 215.34 126.803 214.84C126.69 214.333 126.507 213.893 126.253 213.52C126.007 213.14 125.683 212.847 125.283 212.64C124.89 212.433 124.41 212.33 123.843 212.33C123.323 212.33 122.863 212.42 122.463 212.6C122.07 212.78 121.737 213.04 121.463 213.38C121.197 213.713 120.993 214.12 120.853 214.6C120.713 215.08 120.643 215.627 120.643 216.24L119.603 216.01C119.603 214.903 119.797 213.973 120.183 213.22C120.57 212.467 121.103 211.897 121.783 211.51C122.463 211.123 123.243 210.93 124.123 210.93C124.77 210.93 125.333 211.03 125.813 211.23C126.3 211.43 126.71 211.7 127.043 212.04C127.383 212.38 127.657 212.77 127.863 213.21C128.07 213.643 128.22 214.107 128.313 214.6C128.407 215.087 128.453 215.573 128.453 216.06V222H126.973ZM119.163 222V207.6H120.493V215.73H120.643V222H119.163ZM135.618 222.3C134.565 222.3 133.652 222.067 132.878 221.6C132.112 221.133 131.515 220.477 131.088 219.63C130.662 218.783 130.448 217.79 130.448 216.65C130.448 215.47 130.658 214.45 131.078 213.59C131.498 212.73 132.088 212.067 132.848 211.6C133.615 211.133 134.518 210.9 135.558 210.9C136.625 210.9 137.535 211.147 138.288 211.64C139.042 212.127 139.612 212.827 139.998 213.74C140.385 214.653 140.562 215.743 140.528 217.01H139.028V216.49C139.002 215.09 138.698 214.033 138.118 213.32C137.545 212.607 136.705 212.25 135.598 212.25C134.438 212.25 133.548 212.627 132.928 213.38C132.315 214.133 132.008 215.207 132.008 216.6C132.008 217.96 132.315 219.017 132.928 219.77C133.548 220.517 134.425 220.89 135.558 220.89C136.332 220.89 137.005 220.713 137.578 220.36C138.158 220 138.615 219.483 138.948 218.81L140.318 219.34C139.892 220.28 139.262 221.01 138.428 221.53C137.602 222.043 136.665 222.3 135.618 222.3ZM131.488 217.01V215.78H139.738V217.01H131.488ZM142.748 222V211.2H144.068V213.8L143.808 213.46C143.928 213.14 144.084 212.847 144.278 212.58C144.471 212.307 144.681 212.083 144.908 211.91C145.188 211.663 145.514 211.477 145.888 211.35C146.261 211.217 146.638 211.14 147.018 211.12C147.398 211.093 147.744 211.12 148.058 211.2V212.58C147.664 212.48 147.234 212.457 146.768 212.51C146.301 212.563 145.871 212.75 145.478 213.07C145.118 213.35 144.848 213.687 144.668 214.08C144.488 214.467 144.368 214.88 144.308 215.32C144.248 215.753 144.218 216.183 144.218 216.61V222H142.748Z" fill="white"/>
<mask id="mask0_1097_3450" style="mask-type:alpha" maskUnits="userSpaceOnUse" x="70" y="42" width="115" height="115">
<circle cx="127.5" cy="99.5" r="52.5" fill="black"/>
<circle cx="127.5" cy="99.5" r="52.5" fill="black"/>
<circle cx="127.5" cy="99.5" r="52.5" stroke="#52B4DC" stroke-width="10"/>
</mask>
<g mask="url(#mask0_1097_3450)">
<mask id="mask1_1097_3450" style="mask-type:luminance" maskUnits="userSpaceOnUse" x="76" y="80" width="99" height="39">
<path d="M76 80.8696H174.88V118.667H76V80.8696Z" fill="white"/>
</mask>
<g mask="url(#mask1_1097_3450)">
<path d="M95.4688 100.344V111.031H101.578L104.25 118.667H113.797L107.318 100.344H95.4688ZM94.3229 100.344H82.4792L76 118.667H85.5417L88.2187 111.031H94.3229V100.344ZM94.3229 99.1978V80.8696H89.3646L82.8854 99.1978H94.3229ZM106.911 99.1978L100.432 80.8696H95.4688V99.1978H106.911ZM129.068 100.344V118.667H132.12V118.625C138.51 118.229 143.573 112.943 143.573 106.448C143.573 104.219 142.953 102.14 141.906 100.344H129.068ZM116.849 100.344V118.667H127.922V100.344H116.849ZM127.922 99.1978V80.8696H116.849V99.1978H127.922ZM141.141 99.1978C139.974 97.63 138.464 96.3332 136.693 95.4686C138.771 94.0259 140.135 91.6196 140.135 88.8905C140.135 84.4634 136.547 80.8696 132.12 80.8696H129.068V99.1978H141.141ZM160.37 100.344V118.667H163.427V118.625C169.818 118.234 174.88 112.943 174.88 106.448C174.88 104.219 174.255 102.14 173.208 100.344H160.37ZM148.156 100.344V118.667H159.224V100.344H148.156ZM159.224 99.1978V80.8696H148.156V99.1978H159.224ZM160.37 99.1978V80.8696H163.427C167.854 80.8696 171.443 84.4634 171.443 88.8905C171.443 91.6196 170.078 94.0259 167.995 95.4686C169.771 96.3332 171.281 97.63 172.448 99.1978H160.37Z" fill="#ED1C24"/>
</g>
<circle cx="127.5" cy="99.5" r="55" stroke="#52B4DC" stroke-width="5"/>
</g>
</g>
<defs>
<filter id="filter0_d_1097_3450" x="2.14258" y="236.798" width="20.0039" height="20.0059" filterUnits="userSpaceOnUse" color-interpolation-filters="sRGB">
<feFlood flood-opacity="0" result="BackgroundImageFix"/>
<feColorMatrix in="SourceAlpha" type="matrix" values="0 0 0 0 0 0 0 0 0 0 0 0 0 0 0 0 0 0 127 0" result="hardAlpha"/>
<feMorphology radius="8" operator="erode" in="SourceAlpha" result="effect1_dropShadow_1097_3450"/>
<feOffset dy="8"/>
<feGaussianBlur stdDeviation="9"/>
<feColorMatrix type="matrix" values="0 0 0 0 0.388235 0 0 0 0 0.4 0 0 0 0 0.945098 0 0 0 0.9 0"/>
<feBlend mode="normal" in2="BackgroundImageFix" result="effect1_dropShadow_1097_3450"/>
<feBlend mode="normal" in="SourceGraphic" in2="effect1_dropShadow_1097_3450" result="shape"/>
</filter>
<filter id="filter1_d_1097_3450" x="2.14258" y="236.798" width="20.0039" height="20.0059" filterUnits="userSpaceOnUse" color-interpolation-filters="sRGB">
<feFlood flood-opacity="0" result="BackgroundImageFix"/>
<feColorMatrix in="SourceAlpha" type="matrix" values="0 0 0 0 0 0 0 0 0 0 0 0 0 0 0 0 0 0 127 0" result="hardAlpha"/>
<feMorphology radius="8" operator="erode" in="SourceAlpha" result="effect1_dropShadow_1097_3450"/>
<feOffset dy="8"/>
<feGaussianBlur stdDeviation="9"/>
<feColorMatrix type="matrix" values="0 0 0 0 0.388235 0 0 0 0 0.4 0 0 0 0 0.945098 0 0 0 0.9 0"/>
<feBlend mode="normal" in2="BackgroundImageFix" result="effect1_dropShadow_1097_3450"/>
<feBlend mode="normal" in="SourceGraphic" in2="effect1_dropShadow_1097_3450" result="shape"/>
</filter>
<clipPath id="clip0_1097_3450">
<rect width="255" height="400" rx="8" fill="white"/>
</clipPath>
<clipPath id="clip1_1097_3450">
<rect x="12.1426" y="238.798" width="0.00388571" height="0.00585816" rx="0.00194286" fill="white"/>
</clipPath>
<clipPath id="clip2_1097_3450">
<rect x="12.1426" y="238.798" width="0.00388571" height="0.00585816" rx="0.00194286" fill="white"/>
</clipPath>
</defs>
</svg>
