<svg width="255" height="400" viewBox="0 0 255 400" fill="none" xmlns="http://www.w3.org/2000/svg">
<g clip-path="url(#clip0_5457_2492)">
<rect width="255" height="400" rx="8" fill="white" fill-opacity="0.04"/>
<g filter="url(#filter0_d_5457_2492)">
<g clip-path="url(#clip1_5457_2492)">
<rect x="12.1426" y="238.798" width="0.00388571" height="0.00585816" rx="0.00194286" fill="#52B4DC"/>
<path d="M12.1459 238.801C12.1456 238.8 12.1454 238.801 12.1452 238.801C12.145 238.801 12.145 238.802 12.145 238.802V238.804H12.1459V238.802H12.1454C12.1454 238.802 12.1454 238.802 12.1455 238.802C12.1456 238.801 12.1457 238.801 12.1458 238.801L12.1459 238.801ZM12.1445 238.801C12.1442 238.8 12.1439 238.801 12.1438 238.801C12.1436 238.801 12.1436 238.802 12.1436 238.802V238.804H12.1445V238.802H12.144C12.144 238.802 12.144 238.802 12.1441 238.802C12.1441 238.801 12.1443 238.801 12.1444 238.801L12.1445 238.801Z" fill="white"/>
</g>
</g>
<g filter="url(#filter1_d_5457_2492)">
<g clip-path="url(#clip2_5457_2492)">
<rect x="12.1426" y="238.798" width="0.00388571" height="0.00585816" rx="0.00194286" fill="#52B4DC"/>
<path d="M12.1459 238.801C12.1456 238.8 12.1454 238.801 12.1452 238.801C12.145 238.801 12.145 238.802 12.145 238.802V238.804H12.1459V238.802H12.1454C12.1454 238.802 12.1454 238.802 12.1455 238.802C12.1456 238.801 12.1457 238.801 12.1458 238.801L12.1459 238.801ZM12.1445 238.801C12.1442 238.8 12.1439 238.801 12.1438 238.801C12.1436 238.801 12.1436 238.802 12.1436 238.802V238.804H12.1445V238.802H12.144C12.144 238.802 12.144 238.802 12.1441 238.802C12.1441 238.801 12.1443 238.801 12.1444 238.801L12.1445 238.801Z" fill="white"/>
</g>
</g>
<line opacity="0.15" x1="30" y1="189.5" x2="237" y2="189.5" stroke="white"/>
<path opacity="0.85" d="M35.23 222V209.01H30.2V207.6H41.73V209.01H36.7V222H35.23ZM43.5336 209.15V207.5H45.0036V209.15H43.5336ZM43.5336 222V211.2H45.0036V222H43.5336ZM53.8816 222C53.2749 222.127 52.6749 222.177 52.0816 222.15C51.4949 222.123 50.9682 221.997 50.5016 221.77C50.0416 221.543 49.6916 221.19 49.4516 220.71C49.2582 220.31 49.1516 219.907 49.1316 219.5C49.1182 219.087 49.1116 218.617 49.1116 218.09V208.2H50.5716V218.03C50.5716 218.483 50.5749 218.863 50.5816 219.17C50.5949 219.47 50.6649 219.737 50.7916 219.97C51.0316 220.417 51.4116 220.683 51.9316 220.77C52.4582 220.857 53.1082 220.837 53.8816 220.71V222ZM46.8016 212.46V211.2H53.8816V212.46H46.8016ZM60.1888 222.3C59.1354 222.3 58.2221 222.067 57.4488 221.6C56.6821 221.133 56.0854 220.477 55.6588 219.63C55.2321 218.783 55.0188 217.79 55.0188 216.65C55.0188 215.47 55.2288 214.45 55.6488 213.59C56.0688 212.73 56.6588 212.067 57.4188 211.6C58.1854 211.133 59.0888 210.9 60.1288 210.9C61.1954 210.9 62.1054 211.147 62.8588 211.64C63.6121 212.127 64.1821 212.827 64.5688 213.74C64.9554 214.653 65.1321 215.743 65.0988 217.01H63.5988V216.49C63.5721 215.09 63.2688 214.033 62.6888 213.32C62.1154 212.607 61.2754 212.25 60.1688 212.25C59.0088 212.25 58.1188 212.627 57.4988 213.38C56.8854 214.133 56.5788 215.207 56.5788 216.6C56.5788 217.96 56.8854 219.017 57.4988 219.77C58.1188 220.517 58.9954 220.89 60.1288 220.89C60.9021 220.89 61.5754 220.713 62.1488 220.36C62.7288 220 63.1854 219.483 63.5188 218.81L64.8888 219.34C64.4621 220.28 63.8321 221.01 62.9988 221.53C62.1721 222.043 61.2354 222.3 60.1888 222.3ZM56.0588 217.01V215.78H64.3088V217.01H56.0588ZM67.518 222V207.3H68.988V222H67.518ZM78.9098 222L74.9898 211.2H76.4798L79.6698 220.08L82.8398 211.2H84.3498L80.4298 222H78.9098ZM90.2655 222.3C89.1921 222.3 88.2755 222.057 87.5155 221.57C86.7555 221.083 86.1721 220.41 85.7655 219.55C85.3588 218.69 85.1555 217.703 85.1555 216.59C85.1555 215.457 85.3621 214.463 85.7755 213.61C86.1888 212.757 86.7755 212.093 87.5355 211.62C88.3021 211.14 89.2121 210.9 90.2655 210.9C91.3455 210.9 92.2655 211.143 93.0255 211.63C93.7921 212.11 94.3755 212.78 94.7755 213.64C95.1821 214.493 95.3855 215.477 95.3855 216.59C95.3855 217.723 95.1821 218.72 94.7755 219.58C94.3688 220.433 93.7821 221.1 93.0155 221.58C92.2488 222.06 91.3321 222.3 90.2655 222.3ZM90.2655 220.89C91.4655 220.89 92.3588 220.493 92.9455 219.7C93.5321 218.9 93.8255 217.863 93.8255 216.59C93.8255 215.283 93.5288 214.243 92.9355 213.47C92.3488 212.697 91.4588 212.31 90.2655 212.31C89.4588 212.31 88.7921 212.493 88.2655 212.86C87.7455 213.22 87.3555 213.723 87.0955 214.37C86.8421 215.01 86.7155 215.75 86.7155 216.59C86.7155 217.89 87.0155 218.933 87.6155 219.72C88.2155 220.5 89.0988 220.89 90.2655 220.89ZM105.391 222V216.49C105.391 215.89 105.335 215.34 105.221 214.84C105.108 214.333 104.925 213.893 104.671 213.52C104.425 213.14 104.101 212.847 103.701 212.64C103.308 212.433 102.828 212.33 102.261 212.33C101.741 212.33 101.281 212.42 100.881 212.6C100.488 212.78 100.155 213.04 99.8814 213.38C99.6147 213.713 99.4114 214.12 99.2714 214.6C99.1314 215.08 99.0614 215.627 99.0614 216.24L98.0214 216.01C98.0214 214.903 98.2147 213.973 98.6014 213.22C98.9881 212.467 99.5214 211.897 100.201 211.51C100.881 211.123 101.661 210.93 102.541 210.93C103.188 210.93 103.751 211.03 104.231 211.23C104.718 211.43 105.128 211.7 105.461 212.04C105.801 212.38 106.075 212.77 106.281 213.21C106.488 213.643 106.638 214.107 106.731 214.6C106.825 215.087 106.871 215.573 106.871 216.06V222H105.391ZM97.5814 222V211.2H98.9114V213.86H99.0614V222H97.5814ZM112.47 222L117.43 207.6H119.38L124.34 222H122.81L118.1 208.42H118.68L114 222H112.47ZM114.68 218.51V217.13H122.12V218.51H114.68ZM126.146 222V207.6H131.706C132.513 207.6 133.216 207.767 133.816 208.1C134.416 208.433 134.883 208.883 135.216 209.45C135.549 210.01 135.716 210.63 135.716 211.31C135.716 212.083 135.509 212.773 135.096 213.38C134.683 213.98 134.129 214.397 133.436 214.63L133.416 214.14C134.349 214.407 135.083 214.873 135.616 215.54C136.149 216.207 136.416 217.013 136.416 217.96C136.416 218.793 136.239 219.513 135.886 220.12C135.533 220.72 135.036 221.183 134.396 221.51C133.756 221.837 133.013 222 132.166 222H126.146ZM127.626 220.59H131.806C132.393 220.59 132.919 220.487 133.386 220.28C133.853 220.067 134.219 219.767 134.486 219.38C134.759 218.993 134.896 218.527 134.896 217.98C134.896 217.447 134.773 216.967 134.526 216.54C134.279 216.113 133.943 215.773 133.516 215.52C133.096 215.26 132.616 215.13 132.076 215.13H127.626V220.59ZM127.626 213.74H131.696C132.156 213.74 132.576 213.637 132.956 213.43C133.336 213.217 133.636 212.927 133.856 212.56C134.083 212.193 134.196 211.77 134.196 211.29C134.196 210.61 133.959 210.057 133.486 209.63C133.019 209.203 132.423 208.99 131.696 208.99H127.626V213.74ZM138.412 222V207.6H143.972C144.778 207.6 145.482 207.767 146.082 208.1C146.682 208.433 147.148 208.883 147.482 209.45C147.815 210.01 147.982 210.63 147.982 211.31C147.982 212.083 147.775 212.773 147.362 213.38C146.948 213.98 146.395 214.397 145.702 214.63L145.682 214.14C146.615 214.407 147.348 214.873 147.882 215.54C148.415 216.207 148.682 217.013 148.682 217.96C148.682 218.793 148.505 219.513 148.152 220.12C147.798 220.72 147.302 221.183 146.662 221.51C146.022 221.837 145.278 222 144.432 222H138.412ZM139.892 220.59H144.072C144.658 220.59 145.185 220.487 145.652 220.28C146.118 220.067 146.485 219.767 146.752 219.38C147.025 218.993 147.162 218.527 147.162 217.98C147.162 217.447 147.038 216.967 146.792 216.54C146.545 216.113 146.208 215.773 145.782 215.52C145.362 215.26 144.882 215.13 144.342 215.13H139.892V220.59ZM139.892 213.74H143.962C144.422 213.74 144.842 213.637 145.222 213.43C145.602 213.217 145.902 212.927 146.122 212.56C146.348 212.193 146.462 211.77 146.462 211.29C146.462 210.61 146.225 210.057 145.752 209.63C145.285 209.203 144.688 208.99 143.962 208.99H139.892V213.74ZM150.477 215.43V214.17H156.477V215.43H150.477ZM159.076 222V207.6H164.636C164.776 207.6 164.932 207.607 165.106 207.62C165.286 207.627 165.466 207.647 165.646 207.68C166.399 207.793 167.036 208.057 167.556 208.47C168.082 208.877 168.479 209.39 168.746 210.01C169.019 210.63 169.156 211.317 169.156 212.07C169.156 212.817 169.019 213.5 168.746 214.12C168.472 214.74 168.072 215.257 167.546 215.67C167.026 216.077 166.392 216.337 165.646 216.45C165.466 216.477 165.286 216.497 165.106 216.51C164.932 216.523 164.776 216.53 164.636 216.53H160.546V222H159.076ZM160.546 215.13H164.596C164.716 215.13 164.856 215.123 165.016 215.11C165.176 215.097 165.332 215.073 165.486 215.04C165.979 214.933 166.382 214.73 166.696 214.43C167.016 214.13 167.252 213.773 167.406 213.36C167.566 212.947 167.646 212.517 167.646 212.07C167.646 211.623 167.566 211.193 167.406 210.78C167.252 210.36 167.016 210 166.696 209.7C166.382 209.4 165.979 209.197 165.486 209.09C165.332 209.057 165.176 209.037 165.016 209.03C164.856 209.017 164.716 209.01 164.596 209.01H160.546V215.13ZM171.146 222V211.2H172.466V213.8L172.206 213.46C172.326 213.14 172.483 212.847 172.676 212.58C172.869 212.307 173.079 212.083 173.306 211.91C173.586 211.663 173.913 211.477 174.286 211.35C174.659 211.217 175.036 211.14 175.416 211.12C175.796 211.093 176.143 211.12 176.456 211.2V212.58C176.063 212.48 175.633 212.457 175.166 212.51C174.699 212.563 174.269 212.75 173.876 213.07C173.516 213.35 173.246 213.687 173.066 214.08C172.886 214.467 172.766 214.88 172.706 215.32C172.646 215.753 172.616 216.183 172.616 216.61V222H171.146ZM182.668 222.3C181.594 222.3 180.678 222.057 179.918 221.57C179.158 221.083 178.574 220.41 178.168 219.55C177.761 218.69 177.558 217.703 177.558 216.59C177.558 215.457 177.764 214.463 178.178 213.61C178.591 212.757 179.178 212.093 179.938 211.62C180.704 211.14 181.614 210.9 182.668 210.9C183.748 210.9 184.668 211.143 185.428 211.63C186.194 212.11 186.778 212.78 187.178 213.64C187.584 214.493 187.788 215.477 187.788 216.59C187.788 217.723 187.584 218.72 187.178 219.58C186.771 220.433 186.184 221.1 185.418 221.58C184.651 222.06 183.734 222.3 182.668 222.3ZM182.668 220.89C183.868 220.89 184.761 220.493 185.348 219.7C185.934 218.9 186.228 217.863 186.228 216.59C186.228 215.283 185.931 214.243 185.338 213.47C184.751 212.697 183.861 212.31 182.668 212.31C181.861 212.31 181.194 212.493 180.668 212.86C180.148 213.22 179.758 213.723 179.498 214.37C179.244 215.01 179.118 215.75 179.118 216.59C179.118 217.89 179.418 218.933 180.018 219.72C180.618 220.5 181.501 220.89 182.668 220.89ZM188.394 226.8V225.38H189.004C189.49 225.38 189.877 225.253 190.164 225C190.457 224.753 190.604 224.337 190.604 223.75V211.2H192.064V224.12C192.064 225.02 191.847 225.69 191.414 226.13C190.987 226.577 190.33 226.8 189.444 226.8H188.394ZM190.604 209.15V207.5H192.064V209.15H190.604ZM199.583 222.3C198.53 222.3 197.617 222.067 196.843 221.6C196.077 221.133 195.48 220.477 195.053 219.63C194.627 218.783 194.413 217.79 194.413 216.65C194.413 215.47 194.623 214.45 195.043 213.59C195.463 212.73 196.053 212.067 196.813 211.6C197.58 211.133 198.483 210.9 199.523 210.9C200.59 210.9 201.5 211.147 202.253 211.64C203.007 212.127 203.577 212.827 203.963 213.74C204.35 214.653 204.527 215.743 204.493 217.01H202.993V216.49C202.967 215.09 202.663 214.033 202.083 213.32C201.51 212.607 200.67 212.25 199.563 212.25C198.403 212.25 197.513 212.627 196.893 213.38C196.28 214.133 195.973 215.207 195.973 216.6C195.973 217.96 196.28 219.017 196.893 219.77C197.513 220.517 198.39 220.89 199.523 220.89C200.297 220.89 200.97 220.713 201.543 220.36C202.123 220 202.58 219.483 202.913 218.81L204.283 219.34C203.857 220.28 203.227 221.01 202.393 221.53C201.567 222.043 200.63 222.3 199.583 222.3ZM195.453 217.01V215.78H203.703V217.01H195.453ZM206.703 222L206.713 207.6H208.193V216.4L213.013 211.2H214.973L209.913 216.6L215.633 222H213.493L208.193 216.8V222H206.703ZM222.514 222C221.908 222.127 221.308 222.177 220.714 222.15C220.128 222.123 219.601 221.997 219.134 221.77C218.674 221.543 218.324 221.19 218.084 220.71C217.891 220.31 217.784 219.907 217.764 219.5C217.751 219.087 217.744 218.617 217.744 218.09V208.2H219.204V218.03C219.204 218.483 219.208 218.863 219.214 219.17C219.228 219.47 219.298 219.737 219.424 219.97C219.664 220.417 220.044 220.683 220.564 220.77C221.091 220.857 221.741 220.837 222.514 220.71V222ZM215.434 212.46V211.2H222.514V212.46H215.434ZM36.57 253.59C35.7833 252.69 35.1067 251.683 34.54 250.57C33.98 249.463 33.5467 248.3 33.24 247.08C32.94 245.86 32.7933 244.633 32.8 243.4C32.7933 242.167 32.94 240.94 33.24 239.72C33.5467 238.493 33.98 237.327 34.54 236.22C35.1067 235.113 35.7833 234.11 36.57 233.21L37.65 234.05C36.8767 234.977 36.23 235.95 35.71 236.97C35.19 237.983 34.8 239.03 34.54 240.11C34.2867 241.19 34.1567 242.287 34.15 243.4C34.1567 244.5 34.29 245.597 34.55 246.69C34.8167 247.777 35.2067 248.833 35.72 249.86C36.24 250.88 36.8833 251.837 37.65 252.73L36.57 253.59ZM47.5856 252.1C46.519 252.1 45.5323 251.913 44.6256 251.54C43.719 251.173 42.929 250.66 42.2556 250C41.5823 249.333 41.0556 248.55 40.6756 247.65C40.3023 246.75 40.1156 245.77 40.1156 244.71C40.1156 243.583 40.299 242.557 40.6656 241.63C41.0323 240.697 41.549 239.893 42.2156 239.22C42.889 238.54 43.6856 238.017 44.6056 237.65C45.5256 237.283 46.5356 237.1 47.6356 237.1C48.8956 237.1 49.9956 237.303 50.9356 237.71C51.8823 238.11 52.6623 238.657 53.2756 239.35C53.889 240.037 54.3356 240.81 54.6156 241.67C54.9023 242.53 55.0223 243.42 54.9756 244.34C54.909 245.6 54.609 246.55 54.0756 247.19C53.549 247.83 52.8123 248.15 51.8656 248.15C51.2523 248.15 50.719 248.007 50.2656 247.72C49.8123 247.433 49.509 247.03 49.3556 246.51L49.8356 246.56C49.6023 247.033 49.2523 247.377 48.7856 247.59C48.3256 247.803 47.8456 247.91 47.3456 247.91C46.739 247.91 46.2056 247.78 45.7456 247.52C45.2923 247.253 44.9356 246.887 44.6756 246.42C44.4223 245.953 44.2956 245.413 44.2956 244.8C44.2956 244.16 44.429 243.607 44.6956 243.14C44.9623 242.673 45.329 242.313 45.7956 242.06C46.2623 241.807 46.789 241.68 47.3756 241.68C47.809 241.68 48.2556 241.77 48.7156 241.95C49.1823 242.13 49.539 242.423 49.7856 242.83L49.3956 243.27V241.96H50.4556L50.4456 245.21C50.4456 245.703 50.559 246.107 50.7856 246.42C51.019 246.727 51.4023 246.88 51.9356 246.88C52.2956 246.88 52.5956 246.78 52.8356 246.58C53.0823 246.38 53.2723 246.1 53.4056 245.74C53.539 245.373 53.6156 244.943 53.6356 244.45C53.6756 243.437 53.5456 242.55 53.2456 241.79C52.9456 241.03 52.519 240.397 51.9656 239.89C51.4123 239.377 50.769 238.993 50.0356 238.74C49.309 238.487 48.5323 238.36 47.7056 238.36C46.7056 238.36 45.8156 238.527 45.0356 238.86C44.2623 239.193 43.6056 239.653 43.0656 240.24C42.5323 240.827 42.129 241.503 41.8556 242.27C41.5823 243.03 41.4523 243.84 41.4656 244.7C41.4723 245.587 41.6323 246.407 41.9456 247.16C42.2656 247.907 42.7056 248.557 43.2656 249.11C43.8256 249.657 44.479 250.08 45.2256 250.38C45.9723 250.687 46.7823 250.84 47.6556 250.84C48.2223 250.84 48.789 250.767 49.3556 250.62C49.929 250.473 50.439 250.27 50.8856 250.01L51.3556 251.13C50.7756 251.457 50.1656 251.7 49.5256 251.86C48.8856 252.02 48.239 252.1 47.5856 252.1ZM47.4256 246.63C47.9456 246.63 48.369 246.48 48.6956 246.18C49.029 245.88 49.1956 245.417 49.1956 244.79C49.1956 244.177 49.0356 243.713 48.7156 243.4C48.4023 243.087 47.9823 242.93 47.4556 242.93C46.8556 242.93 46.3956 243.093 46.0756 243.42C45.7623 243.747 45.6056 244.203 45.6056 244.79C45.6056 245.383 45.769 245.84 46.0956 246.16C46.4223 246.473 46.8656 246.63 47.4256 246.63ZM61.812 250V237.01H56.782V235.6H68.312V237.01H63.282V250H61.812ZM70.1156 237.15V235.5H71.5856V237.15H70.1156ZM70.1156 250V239.2H71.5856V250H70.1156ZM87.4636 250L87.4736 242.91C87.4736 242.077 87.2403 241.423 86.7736 240.95C86.3136 240.47 85.7269 240.23 85.0136 240.23C84.6069 240.23 84.2103 240.323 83.8236 240.51C83.4369 240.697 83.1169 240.997 82.8636 241.41C82.6169 241.823 82.4936 242.363 82.4936 243.03L81.6236 242.78C81.6036 242.007 81.7536 241.33 82.0736 240.75C82.4003 240.17 82.8469 239.72 83.4136 239.4C83.9869 239.073 84.6336 238.91 85.3536 238.91C86.4403 238.91 87.3103 239.247 87.9636 239.92C88.6169 240.587 88.9436 241.49 88.9436 242.63L88.9336 250H87.4636ZM74.5736 250V239.2H75.8936V241.86H76.0536V250H74.5736ZM81.0336 250L81.0436 243.01C81.0436 242.15 80.8136 241.473 80.3536 240.98C79.9003 240.48 79.3003 240.23 78.5536 240.23C77.8069 240.23 77.2036 240.487 76.7436 241C76.2836 241.507 76.0536 242.183 76.0536 243.03L75.1736 242.55C75.1736 241.857 75.3369 241.237 75.6636 240.69C75.9903 240.137 76.4369 239.703 77.0036 239.39C77.5703 239.07 78.2136 238.91 78.9336 238.91C79.6203 238.91 80.2303 239.057 80.7636 239.35C81.3036 239.643 81.7269 240.07 82.0336 240.63C82.3403 241.19 82.4936 241.87 82.4936 242.67L82.4836 250H81.0336ZM91.6961 253.59L90.6161 252.73C91.3828 251.837 92.0228 250.88 92.5361 249.86C93.0561 248.833 93.4461 247.777 93.7061 246.69C93.9728 245.597 94.1094 244.5 94.1161 243.4C94.1094 242.287 93.9761 241.19 93.7161 240.11C93.4628 239.03 93.0761 237.983 92.5561 236.97C92.0361 235.95 91.3894 234.977 90.6161 234.05L91.6961 233.21C92.4828 234.11 93.1561 235.113 93.7161 236.22C94.2828 237.327 94.7161 238.493 95.0161 239.72C95.3228 240.94 95.4728 242.167 95.4661 243.4C95.4728 244.633 95.3228 245.86 95.0161 247.08C94.7161 248.3 94.2828 249.463 93.7161 250.57C93.1561 251.683 92.4828 252.69 91.6961 253.59Z" fill="white"/>
<mask id="mask0_5457_2492" style="mask-type:alpha" maskUnits="userSpaceOnUse" x="70" y="42" width="115" height="115">
<circle cx="127.5" cy="99.5" r="52.5" fill="black"/>
<circle cx="127.5" cy="99.5" r="52.5" fill="black"/>
<circle cx="127.5" cy="99.5" r="52.5" stroke="#52B4DC" stroke-width="10"/>
</mask>
<g mask="url(#mask0_5457_2492)">
<mask id="mask1_5457_2492" style="mask-type:luminance" maskUnits="userSpaceOnUse" x="76" y="80" width="99" height="39">
<path d="M76 80.8696H174.88V118.667H76V80.8696Z" fill="white"/>
</mask>
<g mask="url(#mask1_5457_2492)">
<path d="M95.4688 100.344V111.031H101.578L104.25 118.667H113.797L107.318 100.344H95.4688ZM94.3229 100.344H82.4792L76 118.667H85.5417L88.2187 111.031H94.3229V100.344ZM94.3229 99.1978V80.8696H89.3646L82.8854 99.1978H94.3229ZM106.911 99.1978L100.432 80.8696H95.4688V99.1978H106.911ZM129.068 100.344V118.667H132.12V118.625C138.51 118.229 143.573 112.943 143.573 106.448C143.573 104.219 142.953 102.14 141.906 100.344H129.068ZM116.849 100.344V118.667H127.922V100.344H116.849ZM127.922 99.1978V80.8696H116.849V99.1978H127.922ZM141.141 99.1978C139.974 97.63 138.464 96.3332 136.693 95.4686C138.771 94.0259 140.135 91.6196 140.135 88.8905C140.135 84.4634 136.547 80.8696 132.12 80.8696H129.068V99.1978H141.141ZM160.37 100.344V118.667H163.427V118.625C169.818 118.234 174.88 112.943 174.88 106.448C174.88 104.219 174.255 102.14 173.208 100.344H160.37ZM148.156 100.344V118.667H159.224V100.344H148.156ZM159.224 99.1978V80.8696H148.156V99.1978H159.224ZM160.37 99.1978V80.8696H163.427C167.854 80.8696 171.443 84.4634 171.443 88.8905C171.443 91.6196 170.078 94.0259 167.995 95.4686C169.771 96.3332 171.281 97.63 172.448 99.1978H160.37Z" fill="#ED1C24"/>
</g>
<circle cx="127.5" cy="99.5" r="55" stroke="#52B4DC" stroke-width="5"/>
</g>
</g>
<defs>
<filter id="filter0_d_5457_2492" x="2.14258" y="236.798" width="20.0039" height="20.0059" filterUnits="userSpaceOnUse" color-interpolation-filters="sRGB">
<feFlood flood-opacity="0" result="BackgroundImageFix"/>
<feColorMatrix in="SourceAlpha" type="matrix" values="0 0 0 0 0 0 0 0 0 0 0 0 0 0 0 0 0 0 127 0" result="hardAlpha"/>
<feMorphology radius="8" operator="erode" in="SourceAlpha" result="effect1_dropShadow_5457_2492"/>
<feOffset dy="8"/>
<feGaussianBlur stdDeviation="9"/>
<feColorMatrix type="matrix" values="0 0 0 0 0.388235 0 0 0 0 0.4 0 0 0 0 0.945098 0 0 0 0.9 0"/>
<feBlend mode="normal" in2="BackgroundImageFix" result="effect1_dropShadow_5457_2492"/>
<feBlend mode="normal" in="SourceGraphic" in2="effect1_dropShadow_5457_2492" result="shape"/>
</filter>
<filter id="filter1_d_5457_2492" x="2.14258" y="236.798" width="20.0039" height="20.0059" filterUnits="userSpaceOnUse" color-interpolation-filters="sRGB">
<feFlood flood-opacity="0" result="BackgroundImageFix"/>
<feColorMatrix in="SourceAlpha" type="matrix" values="0 0 0 0 0 0 0 0 0 0 0 0 0 0 0 0 0 0 127 0" result="hardAlpha"/>
<feMorphology radius="8" operator="erode" in="SourceAlpha" result="effect1_dropShadow_5457_2492"/>
<feOffset dy="8"/>
<feGaussianBlur stdDeviation="9"/>
<feColorMatrix type="matrix" values="0 0 0 0 0.388235 0 0 0 0 0.4 0 0 0 0 0.945098 0 0 0 0.9 0"/>
<feBlend mode="normal" in2="BackgroundImageFix" result="effect1_dropShadow_5457_2492"/>
<feBlend mode="normal" in="SourceGraphic" in2="effect1_dropShadow_5457_2492" result="shape"/>
</filter>
<clipPath id="clip0_5457_2492">
<rect width="255" height="400" rx="8" fill="white"/>
</clipPath>
<clipPath id="clip1_5457_2492">
<rect x="12.1426" y="238.798" width="0.00388571" height="0.00585816" rx="0.00194286" fill="white"/>
</clipPath>
<clipPath id="clip2_5457_2492">
<rect x="12.1426" y="238.798" width="0.00388571" height="0.00585816" rx="0.00194286" fill="white"/>
</clipPath>
</defs>
</svg>
