<svg width="50" height="53" viewBox="0 0 50 53" fill="none" xmlns="http://www.w3.org/2000/svg">
<rect width="50" height="53" rx="25" fill="white" fill-opacity="0.05"/>
<path d="M26.996 19.3035C22.7369 19.3035 19.2997 22.7409 19.2997 27C19.2997 31.2591 22.7369 34.6964 26.996 34.6964C31.255 34.6964 34.6923 31.2591 34.6923 27C34.6923 22.7409 31.255 19.3035 26.996 19.3035ZM26.996 32.0021C24.2417 32.0021 21.9939 29.7544 21.9939 27C21.9939 24.2456 24.2417 21.9979 26.996 21.9979C29.7503 21.9979 31.998 24.2456 31.998 27C31.998 29.7544 29.7503 32.0021 26.996 32.0021ZM35.0075 17.1946C34.0131 17.1946 33.2101 17.9977 33.2101 18.9921C33.2101 19.9865 34.0131 20.7896 35.0075 20.7896C36.0019 20.7896 36.8049 19.9903 36.8049 18.9921C36.8052 18.756 36.7589 18.5221 36.6687 18.3039C36.5785 18.0857 36.4461 17.8874 36.2791 17.7204C36.1122 17.5535 35.9139 17.4211 35.6957 17.3308C35.4775 17.2406 35.2436 17.1943 35.0075 17.1946ZM41.9983 27C41.9983 24.9286 42.0171 22.876 41.9008 20.8083C41.7844 18.4067 41.2366 16.2753 39.4804 14.5191C37.7205 12.7591 35.5929 12.215 33.1913 12.0987C31.1199 11.9824 29.0673 12.0011 26.9997 12.0011C24.9284 12.0011 22.8758 11.9824 20.8082 12.0987C18.4066 12.215 16.2752 12.7629 14.519 14.5191C12.7591 16.279 12.215 18.4067 12.0987 20.8083C11.9824 22.8797 12.0011 24.9324 12.0011 27C12.0011 29.0676 11.9824 31.124 12.0987 33.1917C12.215 35.5933 12.7629 37.7247 14.519 39.4809C16.2789 41.2409 18.4066 41.785 20.8082 41.9013C22.8795 42.0176 24.9321 41.9989 26.9997 41.9989C29.0711 41.9989 31.1237 42.0176 33.1913 41.9013C35.5929 41.785 37.7243 41.2371 39.4804 39.4809C41.2403 37.721 41.7844 35.5933 41.9008 33.1917C42.0208 31.124 41.9983 29.0714 41.9983 27ZM38.6962 35.8485C38.4222 36.5314 38.092 37.0418 37.5629 37.5671C37.0338 38.0962 36.5272 38.4265 35.8443 38.7004C33.8705 39.4847 29.1837 39.3083 26.996 39.3083C24.8083 39.3083 20.1177 39.4847 18.1439 38.7042C17.461 38.4302 16.9506 38.1 16.4253 37.5709C15.8962 37.0418 15.566 36.5352 15.292 35.8522C14.5115 33.8746 14.6879 29.1877 14.6879 27C14.6879 24.8123 14.5115 20.1216 15.292 18.1478C15.566 17.4648 15.8962 16.9545 16.4253 16.4291C16.9544 15.9038 17.461 15.5698 18.1439 15.2958C20.1177 14.5153 24.8083 14.6917 26.996 14.6917C29.1837 14.6917 33.8742 14.5153 35.848 15.2958C36.531 15.5698 37.0413 15.9 37.5667 16.4291C38.0958 16.9582 38.426 17.4648 38.6999 18.1478C39.4804 20.1216 39.3041 24.8123 39.3041 27C39.3041 29.1877 39.4804 33.8746 38.6962 35.8485Z" fill="#52B4DC"/>
</svg>
