<svg width="75" height="75" viewBox="0 0 75 75" fill="none" xmlns="http://www.w3.org/2000/svg">
<g clip-path="url(#clip0_1046_3547)">
<path d="M59.8298 50.3845V45.6742C59.8298 44.8652 59.1739 44.2094 58.3649 44.2094H50.8623V36.4045H58.3649C59.1739 36.4045 59.8298 35.7486 59.8298 34.9396V30.2294C61.391 29.6173 62.5 28.0969 62.5 26.3213C62.5 24.0072 60.6174 22.1245 58.3032 22.1245C55.9891 22.1245 54.1064 24.0071 54.1064 26.3213C54.1064 28.1434 55.274 29.6973 56.9 30.276V33.4748H50.8623V32.3286C50.8623 30.1434 49.0845 28.3656 46.8993 28.3656H45.2309V24.244C45.2309 19.9812 41.7628 16.5132 37.5 16.5132C33.2372 16.5132 29.7691 19.9812 29.7691 24.244V28.3656H28.1007C25.9155 28.3656 24.1377 30.1434 24.1377 32.3286V33.4748H18.0999V30.276C19.7259 29.6973 20.8935 28.1435 20.8935 26.3213C20.8935 24.0072 19.0108 22.1245 16.6967 22.1245C14.3825 22.1245 12.5 24.0071 12.5 26.3213C12.5 28.0969 13.609 29.6174 15.1702 30.2294V34.9396C15.1702 35.7486 15.8261 36.4045 16.6351 36.4045H24.1377V44.2094H16.6351C15.8261 44.2094 15.1702 44.8652 15.1702 45.6742V50.3845C13.609 50.9965 12.5 52.5169 12.5 54.2925C12.5 56.6065 14.3826 58.4893 16.6968 58.4893C19.0109 58.4893 20.8936 56.6066 20.8936 54.2925C20.8936 52.4704 19.726 50.9165 18.1 50.3378V47.139H24.1378V48.2852C24.1378 50.4704 25.9156 52.2481 28.1008 52.2481H46.8994C49.0846 52.2481 50.8624 50.4704 50.8624 48.2852V47.139H56.9002V50.3378C55.2742 50.9165 54.1066 52.4703 54.1066 54.2925C54.1066 56.6065 55.9893 58.4893 58.3034 58.4893C60.6176 58.4893 62.5 56.6066 62.5 54.2925C62.5 52.5169 61.391 50.9965 59.8298 50.3845ZM58.3032 25.0542C59.0019 25.0542 59.5703 25.6226 59.5703 26.3213C59.5703 27.02 59.002 27.5884 58.3032 27.5884C57.6045 27.5884 57.0361 27.02 57.0361 26.3213C57.0361 25.6226 57.6046 25.0542 58.3032 25.0542ZM16.6968 25.0542C17.3954 25.0542 17.9639 25.6226 17.9639 26.3213C17.9639 27.02 17.3955 27.5884 16.6968 27.5884C15.998 27.5884 15.4297 27.0199 15.4297 26.3213C15.4297 25.6227 15.998 25.0542 16.6968 25.0542ZM16.6968 55.5596C15.9981 55.5596 15.4297 54.9912 15.4297 54.2925C15.4297 53.5937 15.998 53.0254 16.6968 53.0254C17.3955 53.0254 17.9639 53.5937 17.9639 54.2925C17.9639 54.9912 17.3954 55.5596 16.6968 55.5596ZM32.6988 24.2439C32.6988 21.5966 34.8526 19.4428 37.5 19.4428C40.1474 19.4428 42.3012 21.5966 42.3012 24.2439V28.3655H32.6988V24.2439ZM47.9326 48.2852C47.9326 48.855 47.469 49.3186 46.8993 49.3186H28.1007C27.531 49.3186 27.0674 48.855 27.0674 48.2852V32.3285C27.0674 31.7588 27.531 31.2952 28.1007 31.2952H46.8993C47.469 31.2952 47.9326 31.7588 47.9326 32.3285V48.2852ZM58.3032 55.5596C57.6046 55.5596 57.0361 54.9912 57.0361 54.2925C57.0361 53.5937 57.6045 53.0254 58.3032 53.0254C59.002 53.0254 59.5703 53.5938 59.5703 54.2925C59.5703 54.9911 59.002 55.5596 58.3032 55.5596Z" fill="white" fill-opacity="0.5"/>
<path d="M37.5003 35.8555C36.0371 35.8555 34.8467 37.0458 34.8467 38.5091C34.8467 39.4312 35.3196 40.2445 36.0354 40.7203V43.2629C36.0354 44.0719 36.6913 44.7278 37.5003 44.7278C38.3093 44.7278 38.9651 44.0719 38.9651 43.2629V40.7203C39.681 40.2445 40.1539 39.4312 40.1539 38.5091C40.1539 37.0458 38.9635 35.8555 37.5003 35.8555Z" fill="white" fill-opacity="0.5"/>
</g>
<defs>
<clipPath id="clip0_1046_3547">
<rect width="50" height="50" fill="white" transform="translate(12.5 12.5)"/>
</clipPath>
</defs>
</svg>
