<svg width="75" height="75" viewBox="0 0 75 75" fill="none" xmlns="http://www.w3.org/2000/svg">
<g clip-path="url(#clip0_1046_3538)">
<path d="M62.4766 55.8575C62.3384 54.3148 61.5996 52.9174 60.3977 51.9242C59.1617 50.9 48.996 42.4756 47.7643 41.4548C49.5529 38.5929 50.5864 35.2247 50.5864 31.6227C50.5864 30.0327 50.3843 28.4885 50.0057 27.0129L53.0873 23.9723C53.6612 24.2437 54.3033 24.3961 54.9809 24.3961C57.404 24.3961 59.3755 22.451 59.3755 20.06C59.3755 17.6691 57.4041 15.7241 54.981 15.7241C52.5579 15.7241 50.5864 17.6692 50.5864 20.0601C50.5864 20.7287 50.7408 21.3623 51.0159 21.9283L48.9377 23.9788C45.9641 17.4173 39.2863 12.8335 31.5431 12.8335C21.0428 12.8335 12.5 21.2624 12.5 31.6228C12.5 41.9833 21.0428 50.4121 31.5432 50.4121C35.1939 50.4121 38.6075 49.3924 41.5083 47.6278C42.5431 48.8435 51.085 58.8781 52.1243 60.0989C52.349 60.3599 52.5997 60.6069 52.8495 60.8132C53.917 61.6955 55.2367 62.1669 56.6127 62.1669C56.7877 62.1669 56.9638 62.1593 57.1403 62.1439C58.7038 62.0076 60.1201 61.2785 61.128 60.0913C62.1358 58.9039 62.6148 57.4002 62.4766 55.8575ZM54.981 18.6148C55.7887 18.6148 56.4458 19.2632 56.4458 20.0601C56.4458 20.8571 55.7887 21.5055 54.981 21.5055C54.1733 21.5055 53.5162 20.8571 53.5162 20.0601C53.5162 19.2632 54.1732 18.6148 54.981 18.6148ZM31.5431 47.5407C22.6582 47.5407 15.4102 40.4086 15.4102 31.6421C15.4102 22.8756 22.6582 15.7048 31.5431 15.7048C38.4977 15.7048 44.4371 20.094 46.6897 26.1967L42.2257 30.6012C41.652 30.3297 41.0099 30.1774 40.3323 30.1774C39.6546 30.1774 39.0126 30.3297 38.4388 30.6012L35.5084 27.7097C35.7834 27.1436 35.9378 26.5101 35.9378 25.8415C35.9378 23.4506 33.9664 21.5055 31.5431 21.5055C29.1199 21.5055 27.1485 23.4505 27.1485 25.8415C27.1485 26.5101 27.3029 27.1436 27.578 27.7097L24.6475 30.6012C24.0737 30.3297 23.4316 30.1774 22.754 30.1774C20.3308 30.1774 18.3594 32.1225 18.3594 34.5134C18.3594 36.9043 20.3308 38.8495 22.754 38.8495C25.1771 38.8495 27.1486 36.9044 27.1486 34.5134C27.1486 33.8448 26.9942 33.2113 26.7191 32.6452L29.6496 29.7537C30.2234 30.0252 30.8655 30.1775 31.5431 30.1775C32.2208 30.1775 32.8629 30.0252 33.4366 29.7537L36.3671 32.6452C36.0921 33.2113 35.9377 33.8448 35.9377 34.5134C35.9377 36.9043 37.909 38.8495 40.3323 38.8495C42.7555 38.8495 44.7269 36.9044 44.7269 34.5134C44.7269 33.8448 44.5725 33.2113 44.2974 32.6452L47.5091 29.4762C47.6057 30.1786 47.6566 30.8949 47.6566 31.6228C47.6567 40.3893 40.4282 47.5407 31.5431 47.5407ZM41.7972 34.5134C41.7972 35.3104 41.1401 35.9587 40.3324 35.9587C39.5247 35.9587 38.8675 35.3104 38.8675 34.5134C38.8675 33.7165 39.5247 33.0681 40.3324 33.0681C41.1401 33.0681 41.7972 33.7165 41.7972 34.5134ZM33.008 25.8415C33.008 26.6384 32.3509 27.2868 31.5431 27.2868C30.7354 27.2868 30.0783 26.6384 30.0783 25.8415C30.0783 25.0445 30.7354 24.3962 31.5431 24.3962C32.3509 24.3962 33.008 25.0445 33.008 25.8415ZM24.2188 34.5134C24.2188 35.3104 23.5617 35.9587 22.754 35.9587C21.9463 35.9587 21.2891 35.3104 21.2891 34.5134C21.2891 33.7165 21.9463 33.0681 22.754 33.0681C23.5617 33.0681 24.2188 33.7165 24.2188 34.5134ZM45.7643 48.133L43.8822 45.9219C44.6557 45.2712 45.3759 44.5605 46.0355 43.7973L48.2764 45.6544C47.5075 46.5458 46.6678 47.3743 45.7643 48.133ZM58.8819 58.235C58.3765 58.8304 57.6663 59.1959 56.8823 59.2643C56.0978 59.3325 55.334 59.0956 54.7304 58.5968C54.609 58.4965 54.473 58.3618 54.3623 58.2334L47.6496 50.3476C48.683 49.4812 49.6429 48.534 50.521 47.5144L58.5149 54.1389C59.1183 54.6375 59.4888 55.3382 59.558 56.1119C59.6276 56.8856 59.3873 57.6395 58.8819 58.235Z" fill="white" fill-opacity="0.5"/>
</g>
<defs>
<clipPath id="clip0_1046_3538">
<rect width="50" height="49.3333" fill="white" transform="translate(12.5 12.8335)"/>
</clipPath>
</defs>
</svg>
