<svg width="40" height="40" viewBox="0 0 40 40" fill="none" xmlns="http://www.w3.org/2000/svg">
<g clip-path="url(#clip0_1_385)">
<path d="M29.6986 18.6082C31.9832 16.3236 31.9832 12.6066 29.6986 10.322C27.4089 8.03229 23.7026 8.03168 21.4125 10.322C19.128 12.6063 19.128 16.3236 21.4125 18.6082C23.7023 20.8979 27.4086 20.8982 29.6986 18.6082ZM23.0696 11.9791C24.4435 10.6055 26.6673 10.6052 28.0415 11.9791C29.4121 13.35 29.4121 15.5802 28.0415 16.951C26.6676 18.325 24.4438 18.3253 23.0696 16.951C21.6991 15.5802 21.6991 13.35 23.0696 11.9791Z" fill="white"/>
<path d="M0.0532857 38.4771C-0.0776342 38.8933 0.0334494 39.3477 0.341371 39.6566C0.649597 39.9654 1.104 40.0777 1.52026 39.9477C2.53771 39.63 11.5318 36.7754 13.9543 34.3532C14.6031 33.7041 15.1314 32.9711 15.5211 32.1862C15.7441 32.1993 15.944 32.1529 16.1229 32.0617C17.0128 31.6076 17.9603 31.1361 18.9616 30.635C19.427 36.7003 19.3901 35.7149 19.3916 36.3888C19.3937 37.2634 20.3169 37.8222 21.0902 37.4328C21.3822 37.2387 24.4138 36.1309 26.5507 32.6665C27.7369 30.7436 28.3561 28.5323 28.3561 26.2722V25.4668C30.1203 24.3255 31.7621 23.1066 33.108 21.8072C38.9304 16.1861 40.2451 9.26687 39.964 1.16689C39.9427 0.55166 39.4486 0.0575808 38.8333 0.0362186C30.7355 -0.244848 23.8148 1.06893 18.1929 6.8923C16.9191 8.21188 15.7219 9.76064 14.5997 11.4858H13.625C9.06448 11.4858 4.82225 14.0923 2.74584 18.2473L2.46447 18.807C2.28167 19.1698 2.29998 19.601 2.51269 19.9471C2.72539 20.2932 3.10198 20.5047 3.50817 20.5056C4.17314 20.5074 3.14745 20.4604 9.37576 21.0174C8.88443 21.9994 8.39554 22.9812 7.93869 23.8772C7.83646 24.0774 7.79679 24.2968 7.8151 24.5101C7.03782 24.8989 6.3115 25.4235 5.66819 26.0668C3.24663 28.4881 0.373109 37.4618 0.0532857 38.4771ZM15.8183 29.5882L10.4118 24.1817C10.7555 23.5006 11.103 22.8026 11.5181 21.9735L18.0265 28.4823C17.1733 28.9092 16.508 29.2406 15.8183 29.5882ZM21.6166 34.471L21.222 29.4942C22.7958 28.6895 24.4206 27.8292 25.9995 26.9121C25.8027 30.0084 24.1831 32.7849 21.6166 34.471ZM37.6493 2.35067C37.6886 4.91049 37.5403 7.17611 37.1836 9.21346C33.8578 8.74349 31.2568 6.14218 30.7868 2.81668C32.8238 2.45992 35.0895 2.31161 37.6493 2.35067ZM19.879 8.52011C22.3341 5.97708 25.0733 4.29159 28.4949 3.33303C28.8248 5.37069 29.7822 7.25118 31.2656 8.73434C32.7491 10.2178 34.6293 11.1754 36.6669 11.505C35.7084 14.9267 34.0229 17.6662 31.4799 20.1211C28.6423 22.8606 24.2799 25.2956 20.2287 27.3699L12.6304 19.7713C14.7044 15.7201 17.1394 11.3579 19.879 8.52011ZM5.41459 18.2982C7.12967 15.675 9.98184 14.038 13.1523 13.8894C12.2133 15.4998 11.3331 17.1605 10.511 18.7682L5.41459 18.2982ZM9.31961 26.404L10.6398 27.7242L8.15384 30.2102C7.69608 30.6676 7.69608 31.4098 8.15384 31.8673C8.6113 32.325 9.35348 32.325 9.81094 31.8673L12.2969 29.3813L13.6171 30.7015C13.3363 31.4245 12.8877 32.105 12.2969 32.6958C10.9538 34.0392 6.24497 35.8657 3.02324 36.9814C4.14568 33.7664 5.98069 29.0685 7.32529 27.7242C7.91611 27.1334 8.59665 26.6848 9.31961 26.404Z" fill="white"/>
<path d="M19.7347 20.264C19.2773 19.8065 18.5351 19.8065 18.0776 20.264C17.6199 20.7218 17.6199 21.4636 18.0776 21.9214C18.5351 22.3789 19.2773 22.3789 19.7347 21.9214C20.1925 21.4636 20.1925 20.7218 19.7347 20.264Z" fill="white"/>
</g>
<defs>
<clipPath id="clip0_1_385">
<rect width="40" height="40" fill="white"/>
</clipPath>
</defs>
</svg>
