<svg width="72" height="72" viewBox="0 0 72 72" fill="none" xmlns="http://www.w3.org/2000/svg">
<g filter="url(#filter0_d_1_337)">
<rect x="10" y="2" width="52" height="52" rx="8" fill="#52B4DC"/>
<path d="M48.0001 18.4335C44.7721 17.911 42.3744 18.5285 40.8071 20.286C39.2399 22.0434 38.4563 24.6321 38.4563 28.0521V37.7419H48.0001V28.0521H43.0878C42.8305 26.3421 43.0644 24.9528 43.7896 23.884C44.5381 22.8153 45.7545 22.3522 47.4387 22.4947L48.0001 18.4335ZM33.544 18.4335C30.3159 17.911 27.9183 18.5285 26.351 20.286C24.7837 22.0434 24.0001 24.6321 24.0001 28.0521V37.7419H33.544V28.0521H28.6317C28.3744 26.3421 28.6083 24.9528 29.3335 23.884C30.082 22.8153 31.2984 22.3522 32.9826 22.4947L33.544 18.4335Z" fill="white"/>
</g>
<defs>
<filter id="filter0_d_1_337" x="0" y="0" width="72" height="72" filterUnits="userSpaceOnUse" color-interpolation-filters="sRGB">
<feFlood flood-opacity="0" result="BackgroundImageFix"/>
<feColorMatrix in="SourceAlpha" type="matrix" values="0 0 0 0 0 0 0 0 0 0 0 0 0 0 0 0 0 0 127 0" result="hardAlpha"/>
<feMorphology radius="8" operator="erode" in="SourceAlpha" result="effect1_dropShadow_1_337"/>
<feOffset dy="8"/>
<feGaussianBlur stdDeviation="9"/>
<feColorMatrix type="matrix" values="0 0 0 0 0.388235 0 0 0 0 0.4 0 0 0 0 0.945098 0 0 0 0.9 0"/>
<feBlend mode="normal" in2="BackgroundImageFix" result="effect1_dropShadow_1_337"/>
<feBlend mode="normal" in="SourceGraphic" in2="effect1_dropShadow_1_337" result="shape"/>
</filter>
</defs>
</svg>
